# xmcd
#
# Track frame offsets:
#  150
#  20694
#  41775
#  63918
#  82276
#  97126
#  118190
#  137636
#  158155
#  178810
#  197169
#  219854
#  238211
#  258655
#
# Disc length: 3743 seconds
#
# Revision: 0
# Processed by: cddbd v1.5.2PL0 Copyright (c) Steve Scherf et al.
# Submitted via: Collectorz.com_Music_Collector 6.11
#
DISCID=d60e9d0e
DTITLE=Various Artist - Club Hits 2007 [CD2)
DYEAR=2006
DGENRE=Dance
TTITLE0=Tiësto vs. Maxi Jazz - Dance4Life
TTITLE1=Metric - Monster Hospital (Mstrkrft Remix]
TTITLE2=Bob Sinclar - World, Hold On (Axwell Remix)
TTITLE3=Gwen Stefani - What You Waiting For? (Jacques Lu Cont's TWD Mix)
TTITLE4=Evermore - It's Too Late (Dirty South Remix)
TTITLE5=LBL feat. Princess Superstar - Goes Busters
TTITLE6=Fatboy Slim - Right Here, Right Now (Freemasons Club Mix)
TTITLE7=Armand Van Helden feat. Tara McDonald - My My My (Stonebridge Remix)
TTITLE8=Peter Luts and Dominico - What A Feeling
TTITLE9=The DiscoPunx - Only With You
TTITLE10=2Ntrigue feat. Ce Ce Peniston - Finally (I Like It)
TTITLE11=Max Graham - Crank
TTITLE12=Klaus Badelt/Pirates Of The Caribbean - He's A Pirate (Tiësto Remix)
TTITLE13=Dab Hands - Do Your Own Thing
EXTD=
EXTT0=
EXTT1=
EXTT2=
EXTT3=
EXTT4=
EXTT5=
EXTT6=
EXTT7=
EXTT8=
EXTT9=
EXTT10=
EXTT11=
EXTT12=
EXTT13=
PLAYORDER=
